# xmcd
#
# Track frame offsets:
#	150
#	13332
#	27069
#	43770
#	60014
#	73694
#	86659
#	98549
#	111229
#	123911
#	146541
#	167243
#	182575
#	194878
#	208117
#
# Disc length: 3005 seconds
#
# Revision: 0
# Processed by: cddbd v1.5.2PL0 Copyright (c) Steve Scherf et al.
# Submitted via: dBpowerAMP V4.0
#
DISCID=d10bbb0f
DTITLE=George Jones and Friends - 50th Anniversary Tribute Concert
DYEAR=2007
DGENRE=Country
TTITLE0=I'm A One Woman Man - Alan Jackson
TTITLE1=Tennessee Whiskey - Kenny Chesney
TTITLE2=A Few Ole Country Boys - Randy Travis and George Jones
TTITLE3=A Picture Of Me Without You - Lorrie Morgan
TTITLE4=If My Heart Had Windows - Vince Gill
TTITLE5=Just One More - Martina McBride
TTITLE6=The Race Is On - Trick Pony
TTITLE7=White Lightning - Joe Diffie
TTITLE8=You're Still On My Mind - Sammy Kershaw
TTITLE9=She Thinks I Still Care - Harry Connick Jr.
TTITLE10=Bartender's Blues - Amy Grant
TTITLE11=The Grand Tour - Aaron Neville
TTITLE12=Once You've Had The Best - Randy Travis
TTITLE13=I Always Get Lucky With You - Kenny Chesney
TTITLE14=He Stopped Loving Her Today - George Jones
EXTD=
EXTT0=
EXTT1=
EXTT2=
EXTT3=
EXTT4=
EXTT5=
EXTT6=
EXTT7=
EXTT8=
EXTT9=
EXTT10=
EXTT11=
EXTT12=
EXTT13=
EXTT14=
PLAYORDER=
